<svg width="10" height="7" viewBox="0 0 10 7" fill="none" xmlns="http://www.w3.org/2000/svg">
<path d="M8.4426 0.552551C8.67386 0.552478 8.89661 0.639821 9.06618 0.797071C9.23576 0.954321 9.33963 1.16986 9.35697 1.40047L9.35927 1.46922V6.05255C9.35934 6.28381 9.272 6.50656 9.11475 6.67614C8.9575 6.84571 8.74196 6.94958 8.51135 6.96693L8.4426 6.96922H3.40093C3.30019 6.96923 3.20225 6.93604 3.12227 6.8748L3.07643 6.83493L0.767807 4.52493C0.397016 4.11059 0.379599 3.49368 0.729766 3.04451L0.784766 2.97851L3.07643 0.686843C3.14785 0.615519 3.24081 0.569763 3.34089 0.556676L3.40093 0.552551H8.4426ZM5.01014 2.45005C4.91836 2.39543 4.81039 2.37457 4.70487 2.39108C4.59934 2.40759 4.5029 2.46044 4.4322 2.54049C4.3615 2.62054 4.32097 2.72277 4.31762 2.82952C4.31427 2.93628 4.3483 3.04085 4.41385 3.12518L4.45189 3.16826L5.04406 3.76088L4.45189 4.35351L4.41385 4.39659C4.34549 4.48478 4.31165 4.59488 4.31868 4.70624C4.3257 4.8176 4.37311 4.92257 4.45201 5.00147C4.53091 5.08037 4.63588 5.12778 4.74724 5.13481C4.8586 5.14183 4.9687 5.10799 5.05689 5.03963L5.09997 5.00159L5.6926 4.40943L6.28522 5.00159L6.32831 5.03963C6.4165 5.10799 6.5266 5.14183 6.63796 5.13481C6.74931 5.12778 6.85429 5.08037 6.93319 5.00147C7.01209 4.92257 7.05949 4.8176 7.06652 4.70624C7.07355 4.59488 7.03971 4.48478 6.97135 4.39659L6.93331 4.35351L6.34114 3.76088L6.93331 3.16826L6.97135 3.12518C7.03971 3.03699 7.07355 2.92689 7.06652 2.81553C7.05949 2.70417 7.01209 2.5992 6.93319 2.5203C6.85429 2.4414 6.74931 2.39399 6.63796 2.38696C6.5266 2.37994 6.4165 2.41378 6.32831 2.48213L6.28522 2.52018L5.6926 3.11234L5.09997 2.52018L5.05689 2.48213L5.01014 2.45005Z"/>
</svg>
