<?xml version="1.0" encoding="utf-8"?>
<!-- Generator: Adobe Illustrator 28.0.0, SVG Export Plug-In . SVG Version: 6.00 Build 0)  -->
<svg version="1.1" id="Capa_1" xmlns="http://www.w3.org/2000/svg" xmlns:xlink="http://www.w3.org/1999/xlink" x="0px" y="0px"
	 viewBox="0 0 43 45" style="enable-background:new 0 0 43 45;" xml:space="preserve">
<style type="text/css">
	.st0{fill:#FFFFFF;}
	.st1{fill:#E7F7F7;}
	.st2{fill:#D10013;}
	.st3{fill:#D10013;stroke:#421100;stroke-linecap:round;}
	.st4{fill:none;stroke:#421100;stroke-linecap:round;}
	.st5{fill:#FFFFFF;stroke:#421100;stroke-miterlimit:10;}
	.st6{fill:#79CAD1;}
	.st7{fill:#79CAD1;stroke:#061242;stroke-linecap:round;}
	.st8{fill:none;stroke:#061242;stroke-linecap:round;}
	.st9{fill:#FFFFFF;stroke:#061242;stroke-miterlimit:10;}
</style>
<g>
	<g>
		<g>
			<path class="st0" d="M32.1,32.2l5.6-5.1c0-0.3,0-0.6,0.4-0.8c0.1-0.1,0.3-0.1,0.4-0.1c0.3,0,0.7,0.2,1.2,0.7l0.5,0.5
				c-2.5,1.9-5,3.8-7.5,5.8C32.5,32.9,32.3,32.5,32.1,32.2z"/>
			<path class="st0" d="M33.1,32.8c2-1.8,4.1-3.6,6.1-5.4c-0.4-0.4-0.7-0.6-0.8-0.5c-0.1,0-0.1,0.2,0,0.5c-1.8,1.7-3.7,3.4-5.5,5
				C32.9,32.5,33,32.6,33.1,32.8z"/>
			<path class="st0" d="M2.8,33.8c-0.7-1.7-0.9-3.5-0.8-5.3c0-0.6,0.1-1.2,0.3-1.8l0.1-0.3l9.9-4.2l25.9-0.6l0.7,1.4l-5.9,3.6
				c-0.1,0.7-0.1,1.4-0.1,2c0.1,1.3,0.4,2.6,0.9,3.9c0.3-0.1,0.6-0.1,0.8-0.2c0,0,0,0.7-0.5,1c-0.4,0.2-0.7,0.1-0.8,0.1
				C23.1,33.7,13,34,2.9,34.3C2.9,34.1,2.8,34,2.8,33.8z"/>
			<path class="st0" d="M12.3,22.8c-3.1,1.3-6.3,2.7-9.4,4c-0.1,0.5-0.2,1.1-0.3,1.7c-0.1,2.1,0.3,3.9,0.8,5
				c9.9-0.3,19.7-0.5,29.6-0.8c-0.4-0.9-0.9-2.4-0.9-4.1c0-1,0-1.8,0.2-2.5c1.9-1.2,3.8-2.3,5.6-3.5c-0.1-0.2-0.2-0.3-0.2-0.5
				C29.2,22.4,20.8,22.6,12.3,22.8z"/>
			
				<rect x="2.8" y="25.9" transform="matrix(0.9998 -2.089795e-02 2.089795e-02 0.9998 -0.5523 0.3723)" class="st0" width="29.4" height="1.3"/>
			<path class="st0" d="M2.8,26.9c9.8-0.2,19.6-0.4,29.4-0.6"/>
			<path class="st0" d="M33.3,32.8l-0.9-1l5.3-4.6c-0.2-0.4-0.4-0.9-0.6-1.3c-0.3-0.8-0.5-1.7-0.6-2.5l1.3-0.2
				c0.1,0.8,0.3,1.5,0.5,2.2c0.2,0.6,0.5,1.1,0.8,1.6l0.3,0.5L33.3,32.8z"/>
			<path class="st0" d="M37.2,23.2c0.1,0.7,0.2,1.5,0.6,2.4c0.3,0.7,0.6,1.3,0.8,1.7c-1.9,1.6-3.8,3.3-5.7,4.9"/>
			<path class="st0" d="M32.2,32.5c-0.6-1.5-0.8-3-0.8-4.6c0-0.6,0.1-1.2,0.2-1.8l0.1-0.3l6-3.7l0.1,1.1c0.1,0.8,0.3,1.5,0.5,2.2
				c0.2,0.6,0.5,1.1,0.8,1.6l0.3,0.5l-6.9,5.9L32.2,32.5z"/>
			<path class="st0" d="M37.2,23.2c0.1,0.7,0.2,1.5,0.6,2.4c0.3,0.7,0.6,1.3,0.8,1.7c-1.9,1.6-3.8,3.3-5.7,4.9
				c-0.4-1-0.8-2.5-0.7-4.3c0-0.6,0.1-1.2,0.2-1.7C33.9,25.2,35.6,24.2,37.2,23.2z"/>
			<path class="st0" d="M33.6,33.3l-0.9-1l5.6-5c0-1.4,0.1-2,0.2-2c0,0,0.1,0.2,0.2,0.7c0.1,0.2,0.2,0.3,0.3,0.4
				c0.1,0.1,0.1,0.1,0.3,0.2c0.2,0.2,0.4,0.3,0.5,0.6c0,0,0.1,0.1,0.1,0.1c0.2,0.1,0.3,0.2,0.3,0.3c0,0.1-0.2,0.3-0.3,0.3
				C39.5,28,37.1,30.1,33.6,33.3z"/>
			<path class="st0" d="M33.1,32.8c2-1.8,4-3.6,6-5.4c-0.1-0.1-0.2-0.2-0.3-0.4c-0.2-0.1-0.3-0.2-0.4-0.2"/>
			<path class="st0" d="M31.2,31.8l6-4.6c0-0.2,0.1-0.4,0.2-0.6c0.1-0.1,0.2-0.1,0.2-0.2c0.4-0.3,0-1.1,0-2.1c0-0.7,0.1-0.7,0.1-1.2
				c-0.1-0.7-0.6-1.2-1-1.6c0.1,0,0.7-0.2,1.3,0.2c0.5,0.4,0.6,1,0.6,1.2c0.1,0.6-0.2,0.7-0.2,1.5c-0.1,1.4,0.6,2.5,0.7,2.7
				c0.2,0.2,0.3,0.4,0.5,0.6c-2.6,1.8-5.3,3.6-7.9,5.4C31.6,32.8,31.4,32.3,31.2,31.8z"/>
		</g>
		<path class="st1" d="M35,24.7"/>
		<path class="st1" d="M35,24.7"/>
		<g>
			<path class="st0" d="M33.8,25.2l6-4.6c0-0.2,0.1-0.4,0.2-0.6c0.1-0.1,0.2-0.1,0.2-0.2c0.4-0.3,0-1.1,0-2.1c0-0.7,0.1-0.7,0.1-1.2
				c-0.1-0.7-0.6-1.2-1-1.6c0.1,0,0.7-0.2,1.3,0.2c0.5,0.4,0.6,1,0.6,1.2c0.1,0.6-0.2,0.7-0.2,1.5c-0.1,1.4,0.6,2.5,0.7,2.7
				c0.2,0.2,0.3,0.4,0.5,0.6l-7.9,5.8L33.8,25.2z"/>
			<path class="st0" d="M34.8,25.8c2.2-1.6,4.4-3.2,6.6-4.8c-0.4-0.4-0.6-0.6-0.7-0.6c-0.1,0-0.1,0.2,0,0.5c-2,1.5-4,3-6,4.5
				C34.7,25.6,34.7,25.7,34.8,25.8z"/>
			<path class="st0" d="M4.6,24.6l-0.1-0.5c-0.5-1.8-0.6-3.6-0.3-5.4c0.1-0.6,0.2-1.2,0.4-1.8l0.1-0.3l10.2-3.3l25.8,1.7l0.5,1.5
				l-6.2,3.1c-0.2,0.7-0.3,1.3-0.3,2c-0.1,1.3,0.1,2.7,0.5,4l0.3,0.9L4.6,24.6z"/>
			<path class="st0" d="M15,14.1c-3.2,1-6.5,2.1-9.7,3.1c-0.2,0.5-0.3,1.1-0.4,1.7c-0.3,2.1,0,3.9,0.3,5.1
				c9.9,0.6,19.7,1.2,29.6,1.9c-0.3-1-0.7-2.4-0.6-4.2c0-1,0.2-1.8,0.4-2.5c2-1,4-2,5.9-3c-0.1-0.2-0.1-0.3-0.2-0.5
				C31.8,15.2,23.4,14.6,15,14.1z"/>
			
				<rect x="19.2" y="3.6" transform="matrix(6.871926e-02 -0.9976 0.9976 6.871926e-02 0.2406 36.8582)" class="st0" width="1.3" height="29.4"/>
			<path class="st0" d="M5.2,17.3c9.8,0.7,19.5,1.3,29.3,2"/>
			<path class="st0" d="M35,25.9l-0.8-1.1l5.7-4.1c-0.2-0.5-0.4-0.9-0.5-1.4c-0.2-0.8-0.4-1.7-0.4-2.6l1.3,0c0,0.8,0.1,1.5,0.3,2.3
				c0.2,0.6,0.4,1.1,0.6,1.7l0.3,0.5L35,25.9z"/>
			<path class="st0" d="M39.7,16.7c0,0.7,0.1,1.5,0.4,2.4c0.2,0.7,0.4,1.3,0.7,1.8c-2,1.5-4.1,2.9-6.1,4.4"/>
			<path class="st0" d="M34,25.5c-0.4-1.5-0.5-3.1-0.4-4.7c0.1-0.6,0.2-1.2,0.3-1.8l0.1-0.3l6.3-3.2l0,1.1c0,0.8,0.1,1.5,0.3,2.3
				c0.2,0.6,0.4,1.1,0.6,1.7l0.3,0.5l-7.4,5.3L34,25.5z"/>
			<path class="st0" d="M39.7,16.7c0,0.7,0.1,1.5,0.4,2.4c0.2,0.7,0.4,1.3,0.7,1.8c-2,1.5-4.1,2.9-6.1,4.4c-0.3-1.1-0.6-2.6-0.3-4.4
				c0.1-0.6,0.2-1.2,0.3-1.7C36.3,18.4,38,17.5,39.7,16.7z"/>
			<path class="st0" d="M34.8,25.8c2.2-1.6,4.3-3.2,6.5-4.8c0-0.1-0.1-0.3-0.3-0.4c-0.1-0.1-0.3-0.2-0.4-0.2"/>
			<path class="st0" d="M40.7,18.3"/>
			<path class="st0" d="M40.7,18.3"/>
		</g>
	</g>
	<g>
		<g>
			<path class="st2" d="M32,32.3c1.9-1.7,3.8-3.4,5.7-5.1c-0.4-0.4-0.6-0.5-0.7-0.5c-0.1,0-0.1,0.2,0,0.4c-1.7,1.6-3.5,3.2-5.2,4.7
				C31.9,32.1,31.9,32.2,32,32.3z"/>
			<path class="st3" d="M12.5,23c-3,1.3-5.9,2.5-8.9,3.8c-0.1,0.5-0.2,1-0.2,1.6c-0.1,2,0.3,3.6,0.7,4.7c9.3-0.2,18.6-0.5,27.8-0.7
				c-0.4-0.9-0.8-2.2-0.9-3.9c0-0.9,0-1.7,0.2-2.3c1.8-1.1,3.5-2.2,5.3-3.3c-0.1-0.2-0.1-0.3-0.2-0.5C28.3,22.6,20.4,22.8,12.5,23z"
				/>
			<path class="st4" d="M3.6,26.8c9.2-0.2,18.4-0.4,27.6-0.6"/>
			<path class="st3" d="M35.8,23.3c0.1,0.6,0.2,1.4,0.5,2.2c0.2,0.6,0.5,1.2,0.8,1.6c-1.8,1.5-3.6,3.1-5.4,4.6"/>
			<path class="st5" d="M35.8,23.3c0.1,0.6,0.2,1.4,0.5,2.2c0.2,0.6,0.5,1.2,0.8,1.6c-1.8,1.5-3.6,3.1-5.4,4.6
				c-0.4-1-0.7-2.4-0.7-4.1c0-0.6,0.1-1.1,0.2-1.6C32.8,25.2,34.3,24.3,35.8,23.3z"/>
			<path class="st4" d="M32,32.3c1.9-1.7,3.8-3.4,5.7-5.1c-0.1-0.1-0.2-0.2-0.3-0.3c-0.1-0.1-0.3-0.2-0.4-0.2"/>
		</g>
		<path class="st6" d="M33.8,24.7"/>
		<g>
			<path class="st6" d="M33.6,25.8c2.1-1.5,4.1-3,6.2-4.5c-0.3-0.4-0.6-0.6-0.7-0.5c-0.1,0-0.1,0.2,0,0.4c-1.9,1.4-3.7,2.8-5.6,4.2
				C33.5,25.5,33.5,25.7,33.6,25.8z"/>
			<path class="st7" d="M15,14.7c-3.1,1-6.1,2-9.2,3c-0.2,0.5-0.3,1-0.4,1.6c-0.3,2,0,3.6,0.3,4.8c9.3,0.6,18.5,1.2,27.8,1.8
				c-0.3-0.9-0.6-2.3-0.5-4c0-0.9,0.2-1.7,0.4-2.3c1.9-0.9,3.7-1.9,5.6-2.8c-0.1-0.2-0.1-0.3-0.2-0.5C30.8,15.8,22.9,15.3,15,14.7z"
				/>
			<path class="st8" d="M5.8,17.8c9.2,0.6,18.4,1.3,27.5,1.9"/>
			<path class="st7" d="M38.2,17.2c0,0.6,0.1,1.4,0.3,2.3c0.2,0.7,0.4,1.2,0.6,1.7c-1.9,1.4-3.8,2.8-5.8,4.1"/>
			<path class="st9" d="M38.2,17.2c0,0.6,0.1,1.4,0.3,2.3c0.2,0.7,0.4,1.2,0.6,1.7c-1.9,1.4-3.8,2.8-5.8,4.1c-0.3-1-0.5-2.4-0.3-4.1
				c0.1-0.6,0.2-1.1,0.3-1.6C35,18.8,36.6,18,38.2,17.2z"/>
			<path class="st8" d="M33.6,25.8c2-1.5,4.1-3,6.1-4.5c0-0.1-0.1-0.2-0.3-0.4c-0.1-0.1-0.3-0.2-0.4-0.2"/>
			<path class="st6" d="M39.2,18.7"/>
		</g>
	</g>
</g>
<g>
	<g>
		<g>
			<path class="st0" d="M32.1,32.2l5.6-5.1c0-0.3,0-0.6,0.4-0.8c0.1-0.1,0.3-0.1,0.4-0.1c0.3,0,0.7,0.2,1.2,0.7l0.5,0.5
				c-2.5,1.9-5,3.8-7.5,5.8C32.5,32.9,32.3,32.5,32.1,32.2z"/>
			<path class="st0" d="M33.1,32.8c2-1.8,4.1-3.6,6.1-5.4c-0.4-0.4-0.7-0.6-0.8-0.5c-0.1,0-0.1,0.2,0,0.5c-1.8,1.7-3.7,3.4-5.5,5
				C32.9,32.5,33,32.6,33.1,32.8z"/>
			<path class="st0" d="M2.8,33.8c-0.7-1.7-0.9-3.5-0.8-5.3c0-0.6,0.1-1.2,0.3-1.8l0.1-0.3l9.9-4.2l25.9-0.6l0.7,1.4l-5.9,3.6
				c-0.1,0.7-0.1,1.4-0.1,2c0.1,1.3,0.4,2.6,0.9,3.9c0.3-0.1,0.6-0.1,0.8-0.2c0,0,0,0.7-0.5,1c-0.4,0.2-0.7,0.1-0.8,0.1
				C23.1,33.7,13,34,2.9,34.3C2.9,34.1,2.8,34,2.8,33.8z"/>
			<path class="st0" d="M12.3,22.8c-3.1,1.3-6.3,2.7-9.4,4c-0.1,0.5-0.2,1.1-0.3,1.7c-0.1,2.1,0.3,3.9,0.8,5
				c9.9-0.3,19.7-0.5,29.6-0.8c-0.4-0.9-0.9-2.4-0.9-4.1c0-1,0-1.8,0.2-2.5c1.9-1.2,3.8-2.3,5.6-3.5c-0.1-0.2-0.2-0.3-0.2-0.5
				C29.2,22.4,20.8,22.6,12.3,22.8z"/>
			
				<rect x="2.8" y="25.9" transform="matrix(0.9998 -2.089795e-02 2.089795e-02 0.9998 -0.5523 0.3723)" class="st0" width="29.4" height="1.3"/>
			<path class="st0" d="M2.8,26.9c9.8-0.2,19.6-0.4,29.4-0.6"/>
			<path class="st0" d="M33.3,32.8l-0.9-1l5.3-4.6c-0.2-0.4-0.4-0.9-0.6-1.3c-0.3-0.8-0.5-1.7-0.6-2.5l1.3-0.2
				c0.1,0.8,0.3,1.5,0.5,2.2c0.2,0.6,0.5,1.1,0.8,1.6l0.3,0.5L33.3,32.8z"/>
			<path class="st0" d="M37.2,23.2c0.1,0.7,0.2,1.5,0.6,2.4c0.3,0.7,0.6,1.3,0.8,1.7c-1.9,1.6-3.8,3.3-5.7,4.9"/>
			<path class="st0" d="M32.2,32.5c-0.6-1.5-0.8-3-0.8-4.6c0-0.6,0.1-1.2,0.2-1.8l0.1-0.3l6-3.7l0.1,1.1c0.1,0.8,0.3,1.5,0.5,2.2
				c0.2,0.6,0.5,1.1,0.8,1.6l0.3,0.5l-6.9,5.9L32.2,32.5z"/>
			<path class="st0" d="M37.2,23.2c0.1,0.7,0.2,1.5,0.6,2.4c0.3,0.7,0.6,1.3,0.8,1.7c-1.9,1.6-3.8,3.3-5.7,4.9
				c-0.4-1-0.8-2.5-0.7-4.3c0-0.6,0.1-1.2,0.2-1.7C33.9,25.2,35.6,24.2,37.2,23.2z"/>
			<path class="st0" d="M33.6,33.3l-0.9-1l5.6-5c0-1.4,0.1-2,0.2-2c0,0,0.1,0.2,0.2,0.7c0.1,0.2,0.2,0.3,0.3,0.4
				c0.1,0.1,0.1,0.1,0.3,0.2c0.2,0.2,0.4,0.3,0.5,0.6c0,0,0.1,0.1,0.1,0.1c0.2,0.1,0.3,0.2,0.3,0.3c0,0.1-0.2,0.3-0.3,0.3
				C39.5,28,37.1,30.1,33.6,33.3z"/>
			<path class="st0" d="M33.1,32.8c2-1.8,4-3.6,6-5.4c-0.1-0.1-0.2-0.2-0.3-0.4c-0.2-0.1-0.3-0.2-0.4-0.2"/>
			<path class="st0" d="M31.2,31.8l6-4.6c0-0.2,0.1-0.4,0.2-0.6c0.1-0.1,0.2-0.1,0.2-0.2c0.4-0.3,0-1.1,0-2.1c0-0.7,0.1-0.7,0.1-1.2
				c-0.1-0.7-0.6-1.2-1-1.6c0.1,0,0.7-0.2,1.3,0.2c0.5,0.4,0.6,1,0.6,1.2c0.1,0.6-0.2,0.7-0.2,1.5c-0.1,1.4,0.6,2.5,0.7,2.7
				c0.2,0.2,0.3,0.4,0.5,0.6c-2.6,1.8-5.3,3.6-7.9,5.4C31.6,32.8,31.4,32.3,31.2,31.8z"/>
		</g>
		<path class="st1" d="M35,24.7"/>
		<path class="st1" d="M35,24.7"/>
		<g>
			<path class="st0" d="M33.8,25.2l6-4.6c0-0.2,0.1-0.4,0.2-0.6c0.1-0.1,0.2-0.1,0.2-0.2c0.4-0.3,0-1.1,0-2.1c0-0.7,0.1-0.7,0.1-1.2
				c-0.1-0.7-0.6-1.2-1-1.6c0.1,0,0.7-0.2,1.3,0.2c0.5,0.4,0.6,1,0.6,1.2c0.1,0.6-0.2,0.7-0.2,1.5c-0.1,1.4,0.6,2.5,0.7,2.7
				c0.2,0.2,0.3,0.4,0.5,0.6l-7.9,5.8L33.8,25.2z"/>
			<path class="st0" d="M34.8,25.8c2.2-1.6,4.4-3.2,6.6-4.8c-0.4-0.4-0.6-0.6-0.7-0.6c-0.1,0-0.1,0.2,0,0.5c-2,1.5-4,3-6,4.5
				C34.7,25.6,34.7,25.7,34.8,25.8z"/>
			<path class="st0" d="M4.6,24.6l-0.1-0.5c-0.5-1.8-0.6-3.6-0.3-5.4c0.1-0.6,0.2-1.2,0.4-1.8l0.1-0.3l10.2-3.3l25.8,1.7l0.5,1.5
				l-6.2,3.1c-0.2,0.7-0.3,1.3-0.3,2c-0.1,1.3,0.1,2.7,0.5,4l0.3,0.9L4.6,24.6z"/>
			<path class="st0" d="M15,14.1c-3.2,1-6.5,2.1-9.7,3.1c-0.2,0.5-0.3,1.1-0.4,1.7c-0.3,2.1,0,3.9,0.3,5.1
				c9.9,0.6,19.7,1.2,29.6,1.9c-0.3-1-0.7-2.4-0.6-4.2c0-1,0.2-1.8,0.4-2.5c2-1,4-2,5.9-3c-0.1-0.2-0.1-0.3-0.2-0.5
				C31.8,15.2,23.4,14.6,15,14.1z"/>
			
				<rect x="19.2" y="3.6" transform="matrix(6.871926e-02 -0.9976 0.9976 6.871926e-02 0.2406 36.8582)" class="st0" width="1.3" height="29.4"/>
			<path class="st0" d="M5.2,17.3c9.8,0.7,19.5,1.3,29.3,2"/>
			<path class="st0" d="M35,25.9l-0.8-1.1l5.7-4.1c-0.2-0.5-0.4-0.9-0.5-1.4c-0.2-0.8-0.4-1.7-0.4-2.6l1.3,0c0,0.8,0.1,1.5,0.3,2.3
				c0.2,0.6,0.4,1.1,0.6,1.7l0.3,0.5L35,25.9z"/>
			<path class="st0" d="M39.7,16.7c0,0.7,0.1,1.5,0.4,2.4c0.2,0.7,0.4,1.3,0.7,1.8c-2,1.5-4.1,2.9-6.1,4.4"/>
			<path class="st0" d="M34,25.5c-0.4-1.5-0.5-3.1-0.4-4.7c0.1-0.6,0.2-1.2,0.3-1.8l0.1-0.3l6.3-3.2l0,1.1c0,0.8,0.1,1.5,0.3,2.3
				c0.2,0.6,0.4,1.1,0.6,1.7l0.3,0.5l-7.4,5.3L34,25.5z"/>
			<path class="st0" d="M39.7,16.7c0,0.7,0.1,1.5,0.4,2.4c0.2,0.7,0.4,1.3,0.7,1.8c-2,1.5-4.1,2.9-6.1,4.4c-0.3-1.1-0.6-2.6-0.3-4.4
				c0.1-0.6,0.2-1.2,0.3-1.7C36.3,18.4,38,17.5,39.7,16.7z"/>
			<path class="st0" d="M34.8,25.8c2.2-1.6,4.3-3.2,6.5-4.8c0-0.1-0.1-0.3-0.3-0.4c-0.1-0.1-0.3-0.2-0.4-0.2"/>
			<path class="st0" d="M40.7,18.3"/>
			<path class="st0" d="M40.7,18.3"/>
		</g>
	</g>
	<g>
		<g>
			<path class="st2" d="M32,32.3c1.9-1.7,3.8-3.4,5.7-5.1c-0.4-0.4-0.6-0.5-0.7-0.5c-0.1,0-0.1,0.2,0,0.4c-1.7,1.6-3.5,3.2-5.2,4.7
				C31.9,32.1,31.9,32.2,32,32.3z"/>
			<path class="st3" d="M12.5,23c-3,1.3-5.9,2.5-8.9,3.8c-0.1,0.5-0.2,1-0.2,1.6c-0.1,2,0.3,3.6,0.7,4.7c9.3-0.2,18.6-0.5,27.8-0.7
				c-0.4-0.9-0.8-2.2-0.9-3.9c0-0.9,0-1.7,0.2-2.3c1.8-1.1,3.5-2.2,5.3-3.3c-0.1-0.2-0.1-0.3-0.2-0.5C28.3,22.6,20.4,22.8,12.5,23z"
				/>
			<path class="st4" d="M3.6,26.8c9.2-0.2,18.4-0.4,27.6-0.6"/>
			<path class="st3" d="M35.8,23.3c0.1,0.6,0.2,1.4,0.5,2.2c0.2,0.6,0.5,1.2,0.8,1.6c-1.8,1.5-3.6,3.1-5.4,4.6"/>
			<path class="st5" d="M35.8,23.3c0.1,0.6,0.2,1.4,0.5,2.2c0.2,0.6,0.5,1.2,0.8,1.6c-1.8,1.5-3.6,3.1-5.4,4.6
				c-0.4-1-0.7-2.4-0.7-4.1c0-0.6,0.1-1.1,0.2-1.6C32.8,25.2,34.3,24.3,35.8,23.3z"/>
			<path class="st4" d="M32,32.3c1.9-1.7,3.8-3.4,5.7-5.1c-0.1-0.1-0.2-0.2-0.3-0.3c-0.1-0.1-0.3-0.2-0.4-0.2"/>
		</g>
		<path class="st6" d="M33.8,24.7"/>
		<g>
			<path class="st6" d="M33.6,25.8c2.1-1.5,4.1-3,6.2-4.5c-0.3-0.4-0.6-0.6-0.7-0.5c-0.1,0-0.1,0.2,0,0.4c-1.9,1.4-3.7,2.8-5.6,4.2
				C33.5,25.5,33.5,25.7,33.6,25.8z"/>
			<path class="st7" d="M15,14.7c-3.1,1-6.1,2-9.2,3c-0.2,0.5-0.3,1-0.4,1.6c-0.3,2,0,3.6,0.3,4.8c9.3,0.6,18.5,1.2,27.8,1.8
				c-0.3-0.9-0.6-2.3-0.5-4c0-0.9,0.2-1.7,0.4-2.3c1.9-0.9,3.7-1.9,5.6-2.8c-0.1-0.2-0.1-0.3-0.2-0.5C30.8,15.8,22.9,15.3,15,14.7z"
				/>
			<path class="st8" d="M5.8,17.8c9.2,0.6,18.4,1.3,27.5,1.9"/>
			<path class="st7" d="M38.2,17.2c0,0.6,0.1,1.4,0.3,2.3c0.2,0.7,0.4,1.2,0.6,1.7c-1.9,1.4-3.8,2.8-5.8,4.1"/>
			<path class="st9" d="M38.2,17.2c0,0.6,0.1,1.4,0.3,2.3c0.2,0.7,0.4,1.2,0.6,1.7c-1.9,1.4-3.8,2.8-5.8,4.1c-0.3-1-0.5-2.4-0.3-4.1
				c0.1-0.6,0.2-1.1,0.3-1.6C35,18.8,36.6,18,38.2,17.2z"/>
			<path class="st8" d="M33.6,25.8c2-1.5,4.1-3,6.1-4.5c0-0.1-0.1-0.2-0.3-0.4c-0.1-0.1-0.3-0.2-0.4-0.2"/>
			<path class="st6" d="M39.2,18.7"/>
		</g>
	</g>
</g>
</svg>
