<svg width="20" height="20" viewBox="0 0 20 20" fill="none" xmlns="http://www.w3.org/2000/svg">
<path d="M14.5833 2.06173C15.9768 2.86628 17.134 4.02347 17.9385 5.41699C18.743 6.81051 19.1666 8.39126 19.1666 10.0004C19.1666 11.6095 18.743 13.1902 17.9384 14.5837C17.1339 15.9772 15.9767 17.1344 14.5832 17.9389C13.1896 18.7435 11.6089 19.167 9.99977 19.167C8.39068 19.1669 6.80994 18.7434 5.41643 17.9388C4.02293 17.1342 2.86577 15.977 2.06125 14.5835C1.25673 13.1899 0.833211 11.6092 0.833252 10.0001L0.837835 9.70306C0.889172 8.11997 1.34984 6.5772 2.17492 5.22514C3.00001 3.87309 4.16135 2.7579 5.54574 1.98829C6.93012 1.21868 8.4903 0.820928 10.0742 0.833799C11.658 0.84667 13.2116 1.26973 14.5833 2.06173ZM9.99992 4.50006C9.7568 4.50006 9.52365 4.59664 9.35174 4.76855C9.17983 4.94046 9.08325 5.17362 9.08325 5.41673C8.35391 5.41673 7.65443 5.70646 7.13871 6.22219C6.62298 6.73791 6.33325 7.43739 6.33325 8.16673C6.33325 8.89608 6.62298 9.59555 7.13871 10.1113C7.65443 10.627 8.35391 10.9167 9.08325 10.9167V12.7501C8.93127 12.7582 8.7796 12.7292 8.6413 12.6656C8.50301 12.6021 8.38225 12.5058 8.28942 12.3852L8.22709 12.2926C8.10167 12.0904 7.90251 11.9448 7.67171 11.8868C7.44092 11.8287 7.19658 11.8626 6.99038 11.9815C6.78417 12.1003 6.63226 12.2946 6.56676 12.5234C6.50127 12.7522 6.52732 12.9975 6.63942 13.2075C6.87339 13.6133 7.20712 13.9525 7.60898 14.1932C8.01084 14.4338 8.4675 14.5678 8.93567 14.5825H9.08325C9.08306 14.8072 9.16539 15.0241 9.3146 15.1921C9.46382 15.36 9.66953 15.4674 9.89267 15.4936L9.99992 15.5001C10.243 15.5001 10.4762 15.4035 10.6481 15.2316C10.82 15.0597 10.9166 14.8265 10.9166 14.5834L11.0779 14.5788C11.7926 14.5375 12.4629 14.2192 12.9466 13.6915C13.4302 13.1637 13.6891 12.4682 13.6681 11.7527C13.647 11.0372 13.3479 10.358 12.8341 9.8596C12.3203 9.36117 11.6324 9.08271 10.9166 9.0834V7.25006C11.2448 7.23906 11.5317 7.3784 11.7104 7.6149L11.7728 7.70748C11.8982 7.90974 12.0973 8.0553 12.3281 8.11337C12.5589 8.17144 12.8033 8.13748 13.0095 8.01866C13.2157 7.89984 13.3676 7.70548 13.4331 7.47669C13.4986 7.24789 13.4725 7.00258 13.3604 6.79265C13.1266 6.3867 12.7929 6.04723 12.391 5.80643C11.9891 5.56563 11.5324 5.43149 11.0642 5.41673H10.9166C10.9166 5.17362 10.82 4.94046 10.6481 4.76855C10.4762 4.59664 10.243 4.50006 9.99992 4.50006ZM10.9166 10.9167C11.1597 10.9167 11.3929 11.0133 11.5648 11.1852C11.7367 11.3571 11.8333 11.5903 11.8333 11.8334C11.8333 12.0765 11.7367 12.3097 11.5648 12.4816C11.3929 12.6535 11.1597 12.7501 10.9166 12.7501V10.9167ZM9.08325 7.25006V9.0834C8.84014 9.0834 8.60698 8.98682 8.43507 8.81491C8.26316 8.643 8.16659 8.40985 8.16659 8.16673C8.16659 7.92362 8.26316 7.69046 8.43507 7.51855C8.60698 7.34664 8.84014 7.25006 9.08325 7.25006Z"/>
</svg>
