<?xml version="1.0" encoding="utf-8"?>
<!-- Generator: Adobe Illustrator 28.0.0, SVG Export Plug-In . SVG Version: 6.00 Build 0)  -->
<svg version="1.1" id="Capa_1" xmlns="http://www.w3.org/2000/svg" xmlns:xlink="http://www.w3.org/1999/xlink" x="0px" y="0px"
	 viewBox="0 0 20 21" style="enable-background:new 0 0 20 21;" xml:space="preserve">
<style type="text/css">
	.st0{fill:none;stroke:#7B43B5;stroke-width:2;stroke-linecap:round;stroke-linejoin:round;}
</style>
<path class="st0" d="M10,5.5c-1,0-2,0.3-2.8,0.8C6.4,6.9,5.8,7.7,5.4,8.6C5,9.5,4.9,10.5,5.1,11.5c0.2,1,0.7,1.9,1.4,2.6
	c0.7,0.7,1.6,1.2,2.6,1.4c1,0.2,2,0.1,2.9-0.3c0.9-0.4,1.7-1,2.2-1.8c0.5-0.8,0.8-1.8,0.8-2.8 M11,1.6C9.1,1.3,7.3,1.7,5.6,2.6
	C4,3.5,2.7,4.9,1.9,6.6C1.1,8.3,0.8,10.2,1.1,12c0.3,1.8,1.2,3.5,2.5,4.9s3,2.2,4.9,2.5c1.8,0.3,3.7,0,5.4-0.8
	c1.7-0.8,3.1-2.1,4-3.8c0.9-1.6,1.3-3.5,1.1-5.4 M13,7.5v-3l3-3v3h3l-3,3H13z M13,7.5l-3,3 M9,10.5c0,0.3,0.1,0.5,0.3,0.7
	c0.2,0.2,0.4,0.3,0.7,0.3c0.3,0,0.5-0.1,0.7-0.3c0.2-0.2,0.3-0.4,0.3-0.7c0-0.3-0.1-0.5-0.3-0.7c-0.2-0.2-0.4-0.3-0.7-0.3
	c-0.3,0-0.5,0.1-0.7,0.3C9.1,10,9,10.2,9,10.5z"/>
</svg>
