<svg width="40" height="38" viewBox="0 0 40 38" fill="none" xmlns="http://www.w3.org/2000/svg">
<path d="M18.0538 5.35328C17.7735 4.30721 17.0891 3.41533 16.1513 2.87385C15.2134 2.33237 14.0988 2.18563 13.0528 2.46592C12.0067 2.74622 11.1148 3.43058 10.5733 4.36845C10.0318 5.30633 9.8851 6.4209 10.1654 7.46697C11.0463 10.7545 13.072 13.0292 16.2233 14.2985L16.2075 14.3027M16.2075 14.3027L34.267 18.8231C34.9737 18.9999 35.6202 19.3626 36.1396 19.8735C36.6589 20.3844 37.0321 21.0249 37.2205 21.7286L37.6553 23.3516C37.9356 24.3977 37.7889 25.5123 37.2474 26.4501C36.7059 27.388 35.8141 28.0724 34.768 28.3527L7.15862 35.7506C6.11255 36.0309 4.99798 35.8841 4.0601 35.3427C3.12223 34.8012 2.43787 33.9093 2.15757 32.8632L1.72268 31.2402C1.53395 30.5366 1.53689 29.7953 1.7312 29.0932C1.92552 28.3911 2.30412 27.7537 2.82776 27.2473L16.2075 14.3027Z" stroke-width="3" stroke-linecap="round" stroke-linejoin="round"/>
</svg>
