<svg width="14" height="15" viewBox="0 0 14 15" fill="none" xmlns="http://www.w3.org/2000/svg">
<path d="M4.74996 14.0108V9.51085C4.74996 9.11303 4.908 8.7315 5.1893 8.4502C5.4706 8.16889 5.85213 8.01086 6.24995 8.01086H7.74994C8.14776 8.01086 8.52928 8.16889 8.81059 8.4502C9.09189 8.7315 9.24992 9.11303 9.24992 9.51085V14.0108M1.74999 12.5108V7.7002C1.74999 7.45756 1.55329 7.26087 1.31065 7.26087V7.26087C0.919244 7.26087 0.723227 6.78764 0.999994 6.51087L6.29284 1.21803C6.68336 0.827507 7.31652 0.827508 7.70705 1.21803L12.9999 6.51087C13.2767 6.78764 13.0806 7.26087 12.6892 7.26087V7.26087C12.4466 7.26087 12.2499 7.45756 12.2499 7.7002V12.5108C12.2499 12.9086 12.0919 13.2902 11.8106 13.5715C11.5293 13.8528 11.1477 14.0108 10.7499 14.0108H3.24997C2.85215 14.0108 2.47063 13.8528 2.18932 13.5715C1.90802 13.2902 1.74999 12.9086 1.74999 12.5108Z" stroke-width="1.49999" stroke-linecap="round" stroke-linejoin="round"/>
</svg>
