<svg width="12" height="15" viewBox="0 0 12 15" fill="none" xmlns="http://www.w3.org/2000/svg">
<path d="M3.85714 1.47826V13.4783M6.71429 4.14493H8.14286M6.71429 6.8116H8.14286M1.71429 1.47826H9.57143C9.95031 1.47826 10.3137 1.61874 10.5816 1.86879C10.8495 2.11884 11 2.45798 11 2.8116V10.8116C11 11.1652 10.8495 11.5044 10.5816 11.7544C10.3137 12.0045 9.95031 12.1449 9.57143 12.1449H1.71429C1.52485 12.1449 1.34316 12.0747 1.20921 11.9497C1.07526 11.8246 1 11.6551 1 11.4783V2.14493C1 1.96812 1.07526 1.79855 1.20921 1.67353C1.34316 1.5485 1.52485 1.47826 1.71429 1.47826Z" stroke-width="1.49999" stroke-linecap="round" stroke-linejoin="round"/>
</svg>
