<svg width="16" height="16" viewBox="0 0 16 16" fill="none" xmlns="http://www.w3.org/2000/svg">
<path d="M9.98535 2.0608C10.0055 2.14385 10.0449 2.22098 10.1005 2.28591C10.156 2.35084 10.2261 2.40175 10.305 2.43449C10.384 2.46723 10.4695 2.48088 10.5547 2.47433C10.6399 2.46778 10.7223 2.44122 10.7953 2.3968C12.6246 1.28306 14.7178 3.37554 13.6041 5.20477C13.5596 5.27772 13.5331 5.36012 13.5265 5.44527C13.5199 5.53043 13.5335 5.61594 13.5661 5.69486C13.5988 5.77377 13.6496 5.84387 13.7144 5.89946C13.7793 5.95505 13.8563 5.99455 13.9393 6.01477C16.0206 6.51951 16.0206 9.47974 13.9393 9.98523C13.8563 10.0054 13.7791 10.0448 13.7142 10.1003C13.6493 10.1559 13.5984 10.226 13.5656 10.3049C13.5329 10.3838 13.5192 10.4694 13.5258 10.5546C13.5323 10.6398 13.5589 10.7222 13.6033 10.7952C14.7171 12.6245 12.6246 14.7177 10.7953 13.604C10.7224 13.5595 10.64 13.5329 10.5548 13.5263C10.4697 13.5197 10.3842 13.5333 10.3053 13.566C10.2263 13.5987 10.1562 13.6495 10.1007 13.7143C10.0451 13.7792 10.0056 13.8562 9.98535 13.9392C9.48061 16.0204 6.52038 16.0204 6.01489 13.9392C5.99477 13.8562 5.95533 13.779 5.89978 13.7141C5.84423 13.6492 5.77415 13.5982 5.69522 13.5655C5.61629 13.5328 5.53074 13.5191 5.44554 13.5257C5.36035 13.5322 5.27789 13.5588 5.2049 13.6032C3.37566 14.7169 1.28243 12.6245 2.39617 10.7952C2.44059 10.7223 2.46718 10.6399 2.47378 10.5547C2.48037 10.4696 2.46679 10.3841 2.43412 10.3051C2.40146 10.2262 2.35064 10.1561 2.2858 10.1005C2.22095 10.045 2.14391 10.0054 2.06092 9.98523C-0.0203079 9.48049 -0.0203079 6.52026 2.06092 6.01477C2.14397 5.99465 2.2211 5.95521 2.28603 5.89966C2.35097 5.84411 2.40187 5.77402 2.43461 5.69509C2.46735 5.61616 2.48101 5.53062 2.47446 5.44542C2.46791 5.36022 2.44134 5.27777 2.39692 5.20477C1.28318 3.37554 3.37566 1.28231 5.2049 2.39605C5.27777 2.44081 5.36021 2.46767 5.44546 2.47444C5.53072 2.4812 5.61636 2.46768 5.69538 2.43497C5.7744 2.40227 5.84455 2.35131 5.90009 2.28627C5.95562 2.22124 5.99496 2.14397 6.01489 2.0608C6.51963 -0.02043 9.47986 -0.02043 9.98535 2.0608ZM8.00012 5.75002C7.40339 5.75002 6.8311 5.98707 6.40915 6.40902C5.98719 6.83098 5.75014 7.40327 5.75014 8C5.75014 8.59673 5.98719 9.16902 6.40915 9.59098C6.8311 10.0129 7.40339 10.25 8.00012 10.25C8.59685 10.25 9.16915 10.0129 9.5911 9.59098C10.0131 9.16902 10.2501 8.59673 10.2501 8C10.2501 7.40327 10.0131 6.83098 9.5911 6.40902C9.16915 5.98707 8.59685 5.75002 8.00012 5.75002Z"/>
</svg>
