<svg width="14" height="14" viewBox="0 0 14 14" fill="none" xmlns="http://www.w3.org/2000/svg">
<path d="M1 13H13M1 3.66667V4.33333C1 4.86377 1.21071 5.37247 1.58579 5.74755C1.96086 6.12262 2.46957 6.33333 3 6.33333C3.53043 6.33333 4.03914 6.12262 4.41421 5.74755C4.78929 5.37247 5 4.86377 5 4.33333M1 3.66667H13M1 3.66667L2.33333 1H11.6667L13 3.66667M5 4.33333V3.66667M5 4.33333C5 4.86377 5.21071 5.37247 5.58579 5.74755C5.96086 6.12262 6.46957 6.33333 7 6.33333C7.53043 6.33333 8.03914 6.12262 8.41421 5.74755C8.78929 5.37247 9 4.86377 9 4.33333M9 4.33333V3.66667M9 4.33333C9 4.86377 9.21071 5.37247 9.58579 5.74755C9.96086 6.12262 10.4696 6.33333 11 6.33333C11.5304 6.33333 12.0391 6.12262 12.4142 5.74755C12.7893 5.37247 13 4.86377 13 4.33333V3.66667M2.33333 13V6.23332M11.6667 13V6.23332M5 13V10.3333C5 9.97971 5.14048 9.64057 5.39052 9.39052C5.64057 9.14048 5.97971 9 6.33333 9H7.66667C8.02029 9 8.35943 9.14048 8.60948 9.39052C8.85952 9.64057 9 9.97971 9 10.3333V13" stroke-width="1.49999" stroke-linecap="round" stroke-linejoin="round"/>
</svg>
