<svg width="20" height="21" viewBox="0 0 20 21" fill="none" xmlns="http://www.w3.org/2000/svg">
<path d="M10.0034 5.5011C9.01451 5.5011 8.04781 5.79434 7.22557 6.34375C6.40332 6.89316 5.76246 7.67405 5.38402 8.58768C5.00558 9.50131 4.90657 10.5066 5.09949 11.4766C5.29242 12.4465 5.76862 13.3374 6.46789 14.0366C7.16715 14.7359 8.05806 15.2121 9.02797 15.405C9.99787 15.598 11.0032 15.4989 11.9168 15.1205C12.8305 14.7421 13.6114 14.1012 14.1608 13.2789C14.7102 12.4567 15.0034 11.49 15.0034 10.5011M11.0034 1.55612C9.14947 1.34813 7.27672 1.7214 5.6442 2.62429C4.01169 3.52718 2.70009 4.91507 1.89084 6.59598C1.0816 8.27688 0.814698 10.1677 1.12706 12.007C1.43943 13.8462 2.31562 15.5429 3.63444 16.8624C4.95326 18.1819 6.64953 19.0589 8.4886 19.3722C10.3277 19.6855 12.2186 19.4195 13.9 18.6111C15.5813 17.8027 16.9698 16.4918 17.8735 14.8598C18.7772 13.2277 19.1515 11.3552 18.9444 9.50112M13.0034 7.5011V4.5011L16.0034 1.5011V4.5011H19.0034L16.0034 7.5011H13.0034ZM13.0034 7.5011L10.0034 10.5011M9.00342 10.5011C9.00342 10.7663 9.10878 11.0207 9.29631 11.2082C9.48385 11.3957 9.7382 11.5011 10.0034 11.5011C10.2686 11.5011 10.523 11.3957 10.7105 11.2082C10.8981 11.0207 11.0034 10.7663 11.0034 10.5011C11.0034 10.2359 10.8981 9.98153 10.7105 9.79399C10.523 9.60646 10.2686 9.5011 10.0034 9.5011C9.7382 9.5011 9.48385 9.60646 9.29631 9.79399C9.10878 9.98153 9.00342 10.2359 9.00342 10.5011Z" stroke-width="2" stroke-linecap="round" stroke-linejoin="round"/>
</svg>
