<?xml version="1.0" encoding="utf-8"?>
<!-- Generator: Adobe Illustrator 28.0.0, SVG Export Plug-In . SVG Version: 6.00 Build 0)  -->
<svg version="1.1" id="Capa_1" xmlns="http://www.w3.org/2000/svg" xmlns:xlink="http://www.w3.org/1999/xlink" x="0px" y="0px"
	 viewBox="0 0 43 45" style="enable-background:new 0 0 43 45;" xml:space="preserve">
<style type="text/css">
	.st0{fill:#FFFFFF;stroke:#061242;stroke-linecap:round;}
	.st1{fill:none;stroke:#061242;stroke-linecap:round;}
	.st2{fill:#BCEEF5;stroke:#061242;}
	.st3{fill:#F4F44D;stroke:#061242;}
	.st4{fill:#F7F5FA;stroke:#061242;}
	.st5{fill:#061242;}
</style>
<g>
	<path class="st0" d="M6.7,16.6c-0.5,1.7-0.5,3.2-0.4,4.3c-2,0.1-3.6,1.2-4,2.7c-0.2,0.7-0.2,1.8,0.4,2.7c1,1.5,2.9,1.5,3,1.5
		c0,0.1-0.2,1,0.5,1.8C6.8,30.3,7.9,30,7.9,30c0.3,1.5,0.6,3,0.9,4.5c0.3,1.2,0.7,2,1.1,2.5c0.4,0.5,0.7,1,1.3,1.4
		c0.3,0.2,1.5,0.9,2.2,0.6c1.3-0.7,0.7-4.9,1.5-6.7c0.1-0.2,0.3-0.6,0.8-1c0.3-0.2,0.7-0.3,1-0.3c0.9,0,1.7,1,2,1.9
		c0.9,2.5-1.5,5-0.5,6c0.2,0.3,0.6,0.3,0.9,0.4c0.4,0.1,1,0.1,1.6,0c1.8-0.4,3.9-1.8,5.3-6.6c0.6-2.1,1.6-5.1,3.3-8.8
		c0.8-0.3,2.2-1,3.5-2.5c1.2-1.4,1.7-2.9,1.9-3.7c-0.8-0.7-1.6-1.4-2.4-2.1c0,0.6-0.2,1.5-0.6,2.6c-0.1,0.3-1.1,2.4-1.8,2.3
		c-0.9-0.1-0.1-3.5-1.4-6.2c-2-4.1-9-6.9-14.7-4.8C13.3,9.6,8.3,11.5,6.7,16.6z"/>
	<path class="st1" d="M4.9,24.3c0,0.4,0.5,0.7,1.5,1.5c0,0,0.1,0.1,0.2,0.1c0.5,0,1.2-2,0.6-2.5C6.7,22.8,5,23.5,4.9,24.3z"/>
	<path class="st2" d="M14.7,7.1c-0.3-0.1-1.5-0.4-2.4,0.3C11.5,8,11.2,9,11.5,10c-0.3,0-2.1-0.1-2.6,0.8c-0.7,1.2,0.9,3.8,2.7,4
		c0.7,0.1,1.3-0.2,1.7-0.4c0,0.7,0.4,1.4,0.9,1.7c0.8,0.4,2,0,2.6-1.1c0.1,0.2,0.5,0.7,1.1,0.9c0.8,0.2,1.8-0.3,2.3-1.3
		c0.2,0.2,0.7,0.8,1.5,0.9c1.3,0.2,2.5-1,2.7-2.1c0.3-1.5-1.1-2.7-2.3-3.9c-0.9-0.8-2.9-2.7-4.9-2.1c-0.5,0.2-0.9,0.5-1.1,0.7
		C16,7.9,15.5,7.3,14.7,7.1z"/>
	<path class="st3" d="M30.8,15.1c-4.5-3.8-6.7-5.7-9-7.1c-1.8-1.1-4.2-2.4-4-3.4C18,4,19.2,3.8,19.4,3.7c3.4-0.7,6.9,3.7,11.7,8.1
		c2.3,2.1,5.9,5.1,10.8,8.1c0.1,0.2,0.4,0.7,0.2,1.2c-0.2,0.6-1.1,0.8-1.4,0.9C38.6,22.4,34.9,18.6,30.8,15.1z"/>
	<path class="st4" d="M19.3,5.8c-0.5,1-1.1,1.9-1.6,2.9c1,0.4,2.3,0.9,3.6,1.8c1,0.6,1.7,1.3,2.4,1.9c0.5-0.7,1.1-1.4,1.6-2.2
		C23.2,8.7,21.2,7.2,19.3,5.8z"/>
	<ellipse class="st5" cx="13.2" cy="22.7" rx="1.4" ry="2.3"/>
	<ellipse class="st5" cx="20.4" cy="22.7" rx="1.4" ry="2.3"/>
	<path class="st0" d="M33.2,13.2c-0.8,0.5-1,2.6,0.2,3.4c0.8,0.6,2.2,0.4,2.7-0.3c0.5-0.9-0.4-2.4-1.5-2.9
		C34.4,13.3,33.7,12.9,33.2,13.2z"/>
</g>
</svg>
