<svg width="56" height="56" viewBox="0 0 56 56" fill="none" xmlns="http://www.w3.org/2000/svg">
<ellipse cx="27.9881" cy="27.6524" rx="27.0995" ry="27.6525" fill="#F3D582"/>
<path d="M15.7666 23.4778C16.6522 21.1283 19.2736 17.622 22.6743 22.3934" stroke="#614700" stroke-width="1.1061" stroke-linecap="round" stroke-linejoin="round"/>
<path d="M34.3643 22.3933C35.5349 20.2245 38.5878 17.1882 41.4339 22.3933" stroke="#614700" stroke-width="1.1061" stroke-linecap="round" stroke-linejoin="round"/>
<path d="M20.7249 28.3701C20.7572 29.3704 20.9953 30.354 21.4255 31.2647C21.8557 32.1754 22.4696 32.9954 23.2322 33.6778C23.9948 34.3602 24.8911 34.8918 25.87 35.242C26.8488 35.5923 27.8911 35.7545 28.9372 35.7193C29.9833 35.6841 31.0129 35.4522 31.967 35.0368C32.9211 34.6215 33.7811 34.0309 34.498 33.2986C35.2148 32.5664 35.7745 31.707 36.1449 30.7693C36.5154 29.8317 36.6894 28.8342 36.6571 27.8339L28.691 28.102L20.7249 28.3701Z" fill="#614700"/>
</svg>
