<svg width="56" height="56" viewBox="0 0 56 56" fill="none" xmlns="http://www.w3.org/2000/svg">
<circle cx="27.6525" cy="27.6525" r="27.6525" fill="#CD9DFF"/>
<path d="M16.2666 33.6167L20.6043 34.7011L16.2666 37.9543" stroke="#3F1B65" stroke-width="1.1061" stroke-linecap="round" stroke-linejoin="round"/>
<path d="M37.9541 33.6167L33.6165 34.7011L37.9541 37.9543" stroke="#3F1B65" stroke-width="1.1061" stroke-linecap="round" stroke-linejoin="round"/>
<path d="M35.7857 45.0031C35.7857 44.2198 35.5754 43.4443 35.1666 42.7207C34.7579 41.997 34.1588 41.3395 33.4036 40.7857C32.6484 40.2319 31.7518 39.7926 30.765 39.4928C29.7783 39.1931 28.7207 39.0388 27.6526 39.0388C26.5846 39.0388 25.527 39.1931 24.5402 39.4928C23.5535 39.7926 22.6569 40.2319 21.9017 40.7857C21.1464 41.3395 20.5474 41.997 20.1386 42.7207C19.7299 43.4443 19.5195 44.2198 19.5195 45.0031L27.6526 45.0031H35.7857Z" fill="#3F1B65"/>
</svg>
