<svg width="255" height="151" viewBox="0 0 255 151" fill="none" xmlns="http://www.w3.org/2000/svg">
<path d="M0 146.433C0.376122 139.317 2.27706 99.0013 2.84633 86.9552C2.93782 84.9628 4.55412 83.4481 6.45506 83.255C13.1948 82.8789 28.0872 82.4926 36.0569 85.8167C43.1727 88.7545 46.5883 93.8779 45.7344 100.709C45.1651 104.979 43.1727 108.679 40.0417 111.901C40.8041 112.277 41.4649 112.562 42.1257 113.04C48.9568 117.025 51.9963 123.093 50.1869 130.118C47.9098 139.317 41.5564 144.726 33.8713 147.572C25.9016 150.611 16.2241 150.611 10.0638 150.134C7.69525 150.042 4.46264 149.564 2.28723 149.188C0.955553 148.995 -0.0813237 147.765 0.0101655 146.433H0ZM15.5633 135.424C18.6028 135.424 22.0184 135.231 25.3323 134.479C29.4087 133.533 33.4952 131.917 35.203 127.932C35.4876 127.17 35.203 126.418 34.5422 125.94C32.6413 124.893 30.0796 124.232 27.2333 123.856C23.8177 123.48 19.9243 123.571 16.1326 124.232L15.5633 135.424ZM16.895 107.916C19.1721 107.154 21.6423 106.209 24.1023 104.979C25.9016 104.033 27.711 102.895 29.1342 101.563C29.2257 101.37 29.4188 101.278 29.5103 101.187C29.795 100.902 29.8864 100.424 29.795 100.048C29.7035 99.7637 29.4188 99.3876 29.0325 99.2859C26.664 98.6252 23.716 98.2389 20.6867 98.0559C19.6397 97.9644 18.5011 97.9644 17.4643 97.8627L16.895 107.916Z"/>
<path d="M112.512 135.993C114.128 139.978 113.843 143.77 112.512 147.572C112.135 148.619 111.18 149.371 110.041 149.371C102.641 149.371 62.1315 149.656 62.1315 149.656C60.0476 149.656 58.0552 148.802 56.632 147.379C55.2088 145.864 54.4464 143.872 54.5481 141.778C54.5481 141.778 56.8251 93.4002 57.1098 86.3759C57.2013 85.1458 58.1568 84.0988 59.3868 83.9057C63.1785 83.3364 66.7873 83.5295 70.1114 84.2818C71.3414 84.5664 72.1953 85.7049 72.1953 86.935C71.9107 93.2884 69.9182 134.56 69.9182 134.56C69.9182 134.56 103.881 134.367 110.051 134.275C111.099 134.275 112.135 134.936 112.522 135.983L112.512 135.993ZM116.872 107.632C116.11 115.51 112.888 121.193 108.903 124.801C104.918 128.41 100.079 130.118 95.4335 130.016C90.2187 129.925 85.0953 127.648 81.3036 123.185C77.6033 118.722 75.1331 112.084 76.0887 103.83C76.9426 95.0978 81.1206 89.029 86.0508 85.522C90.8896 82.1979 96.5822 81.344 101.99 82.8688C106.26 84.2004 111.007 87.7075 114.036 93.3087C116.12 97.2021 117.452 102.041 116.883 107.632H116.872ZM100.842 100.425C99.9877 98.9099 98.8491 97.6697 97.6191 97.2936C95.9113 96.8158 94.2035 97.8628 92.9735 99.5706C91.9265 101.085 91.2657 102.986 91.0726 105.355C90.6964 108.293 91.0726 110.763 92.1196 112.562C92.9735 113.985 94.2035 114.931 95.6267 115.032C97.0498 115.032 98.473 114.178 99.6115 112.847C100.842 111.23 101.695 109.055 101.889 106.209C102.082 104.023 101.695 102.031 100.842 100.425Z"/>
<path d="M120.857 124.517C120.481 113.132 124.557 100.14 130.626 92.069C135.089 86.0917 140.68 82.5847 146.281 82.1984C153.305 81.7206 158.429 84.4754 162.22 88.3688C169.051 95.5761 170.383 108.008 170.383 108.008C170.383 108.008 171.43 115.5 170.098 124.131C169.621 127.923 168.584 131.816 166.968 135.425C165.168 139.318 162.322 143.303 158.429 146.241C154.535 149.28 149.696 151.171 144.105 150.988C128.451 150.612 121.335 139.033 120.867 124.517H120.857ZM136.603 129.264C137.65 132.965 140.019 135.811 144.482 136.004C146.382 136.004 147.989 135.343 149.229 134.296C151.13 132.965 152.451 130.972 153.305 129.081C154.637 126.235 155.206 122.911 155.491 119.973C156.06 114.372 155.399 109.442 155.399 109.35C155.399 109.35 155.023 103.942 152.268 99.9574C151.221 98.4428 149.707 97.1111 147.338 97.2026C145.254 97.3957 143.353 99.3882 141.839 101.757C138.799 106.118 137 112.288 136.237 118.265C135.76 122.159 135.76 125.95 136.613 129.275L136.603 129.264Z"/>
<path d="M174.642 145.956C175.018 136.939 176.726 95.9621 177.204 86.1931C177.204 84.8614 178.149 83.8246 179.481 83.6314C183.181 83.0622 186.79 83.2553 190.104 84.0075C191.049 84.2922 191.811 84.9529 192.096 85.8068L203.481 114.362L217.998 85.3291C218.282 84.4752 219.136 83.7128 220.082 83.6213C223.873 83.052 227.391 83.2451 230.806 83.9974C232.036 84.282 232.89 85.4205 232.799 86.7522C232.422 96.5212 230.715 137.315 230.328 146.515C230.237 147.653 229.474 148.701 228.427 148.985C224.443 150.032 220.651 150.032 217.042 148.609C215.904 148.131 215.243 147.094 215.243 145.956C215.436 142.164 215.812 132.771 216.29 122.331L210.119 134.571C209.642 135.618 208.696 136.37 207.558 136.654C204.427 137.6 201.103 137.6 197.504 136.278C196.366 135.902 195.512 135.048 195.136 133.91C194.282 131.826 192.574 127.739 190.673 122.901C190.195 133.239 189.819 142.723 189.626 146.525C189.626 147.664 188.863 148.711 187.725 148.995C183.832 150.134 180.04 150.042 176.34 148.619C175.293 148.141 174.632 147.105 174.632 145.966L174.642 145.956Z"/>
<path d="M236.683 145.955C237.059 136.939 238.767 95.9617 239.244 86.1927C239.244 84.8611 240.19 83.8242 241.521 83.631C245.222 83.0618 248.83 83.2549 252.246 84.0072C253.476 84.2918 254.238 85.4303 254.238 86.762C253.862 96.531 252.154 137.325 251.677 146.525C251.677 147.663 250.914 148.71 249.776 148.995C245.882 150.133 242.091 150.042 238.39 148.619C237.343 148.141 236.683 147.104 236.683 145.966V145.955Z"/>
<path d="M100.943 63.2392C90.8994 63.1071 84.0479 77.1049 86.0505 79.7174C87.3822 81.4557 92.099 77.3997 101.461 77.8571C110.204 78.2841 114.178 82.208 115.48 80.7136C117.584 78.2943 111.251 63.3815 100.943 63.2494V63.2392Z"/>
<path d="M184.696 62.8332C174.45 62.2944 167.557 78.8133 169.59 81.1717C170.953 82.7575 175.842 77.3291 185.194 77.4511C192.91 77.5528 196.671 81.3343 197.932 79.8095C199.944 77.3698 193.947 63.3211 184.696 62.8434V62.8332Z"/>
<path d="M167.322 48.5299C162.189 40.1637 150.925 36.2297 140.282 39.7164C143.383 38.2323 150.011 34.5321 154.981 26.8673C161.792 16.3664 160.827 5.61133 160.44 2.52103C156.283 4.66594 151.139 7.89856 146.077 12.7678C135.535 22.9028 131.235 34.4304 129.446 40.6415C129.771 38.3543 132.231 19.1416 118.945 7.05483C114.543 3.04964 109.755 1.04704 106.177 0C105.689 4.78793 105.333 14.8721 110.294 26.0337C114.116 34.6439 119.494 40.2755 122.889 43.3353C120.419 45.2058 115.682 49.3838 114.127 56.0117C110.985 69.3691 122.737 84.2411 131.225 84.048C135.301 83.9565 135.86 80.4393 142.254 78.9856C149.787 77.2676 152.877 81.2627 157.696 79.8903C165.899 77.5523 174.875 60.8606 167.302 48.5299H167.322ZM143.921 61.7348C143.657 62.4057 141.004 60.9317 137.243 61.9991C133.4 63.0868 131.906 65.8112 131.235 65.3436C130.351 64.7235 131.448 58.8478 135.362 57.4857C139.591 56.0117 144.298 60.7793 143.921 61.7348ZM155.266 68.9625C154.748 69.7554 154.433 70.2535 153.792 70.5584C152.46 71.2192 150.915 70.4974 149.96 70.04C148.811 69.4911 147.642 68.9421 147.479 67.9561C147.235 66.4922 149.34 64.7845 151.332 64.3575C153.345 63.9306 155.927 64.6625 156.313 66.0856C156.557 66.97 155.907 67.9764 155.256 68.9625H155.266ZM165.584 57.0485C165.238 57.5975 163.033 55.788 159.525 56.1845C155.571 56.6216 153.64 59.4476 153.05 58.9393C152.298 58.2786 154.097 52.4741 158.224 51.7727C162.463 51.0611 166.062 56.2556 165.574 57.0485H165.584Z"/>
</svg>
